<mxfile host="app.diagrams.net" agent="Mozilla/5.0 (Windows NT 10.0; Win64; x64) AppleWebKit/537.36 (KHTML, like Gecko) Chrome/131.0.0.0 Safari/537.36" version="24.9.0">
  <diagram name="Página-1" id="ejrajT93Is4Fwoh_2R6h">
    <mxGraphModel dx="1909" dy="1013" grid="1" gridSize="10" guides="1" tooltips="1" connect="1" arrows="1" fold="1" page="0" pageScale="1" pageWidth="1169" pageHeight="827" math="0" shadow="0">
      <root>
        <mxCell id="0" />
        <mxCell id="1" parent="0" />
        <mxCell id="ZY4rVFsuhwn7kicti0D3-1" value="Centro de Explicações" style="shape=umlFrame;whiteSpace=wrap;html=1;pointerEvents=0;width=100;height=40;" parent="1" vertex="1">
          <mxGeometry x="210" y="90" width="830" height="1330" as="geometry" />
        </mxCell>
        <mxCell id="ZY4rVFsuhwn7kicti0D3-7" value="Aluno" style="shape=umlActor;verticalLabelPosition=bottom;verticalAlign=top;html=1;" parent="1" vertex="1">
          <mxGeometry x="140" y="210" width="30" height="60" as="geometry" />
        </mxCell>
        <mxCell id="ZY4rVFsuhwn7kicti0D3-28" value="Docente" style="shape=umlActor;verticalLabelPosition=bottom;verticalAlign=top;html=1;" parent="1" vertex="1">
          <mxGeometry x="140" y="700" width="30" height="60" as="geometry" />
        </mxCell>
        <mxCell id="ZY4rVFsuhwn7kicti0D3-33" style="rounded=0;orthogonalLoop=1;jettySize=auto;html=1;exitX=0;exitY=1;exitDx=0;exitDy=0;exitPerimeter=0;entryX=1;entryY=1;entryDx=0;entryDy=0;endArrow=none;endFill=0;" parent="1" source="ZY4rVFsuhwn7kicti0D3-29" target="ZY4rVFsuhwn7kicti0D3-30" edge="1">
          <mxGeometry relative="1" as="geometry">
            <mxPoint x="980.0000000000005" y="370" as="targetPoint" />
          </mxGeometry>
        </mxCell>
        <mxCell id="ZY4rVFsuhwn7kicti0D3-29" value="Secretaria" style="shape=umlActor;verticalLabelPosition=bottom;verticalAlign=top;html=1;" parent="1" vertex="1">
          <mxGeometry x="1100" y="415" width="30" height="60" as="geometry" />
        </mxCell>
        <mxCell id="ZY4rVFsuhwn7kicti0D3-30" value="Matricular Aluno" style="ellipse;whiteSpace=wrap;html=1;" parent="1" vertex="1">
          <mxGeometry x="870" y="140" width="100" height="50" as="geometry" />
        </mxCell>
        <mxCell id="ZY4rVFsuhwn7kicti0D3-31" value="Corpo Docentes&lt;div&gt;&lt;br&gt;&lt;/div&gt;" style="shape=umlActor;verticalLabelPosition=bottom;verticalAlign=top;html=1;" parent="1" vertex="1">
          <mxGeometry x="1100" y="840" width="30" height="60" as="geometry" />
        </mxCell>
        <mxCell id="ZY4rVFsuhwn7kicti0D3-32" value="Direção" style="shape=umlActor;verticalLabelPosition=bottom;verticalAlign=top;html=1;" parent="1" vertex="1">
          <mxGeometry x="1100" y="1270" width="30" height="60" as="geometry" />
        </mxCell>
        <mxCell id="ZY4rVFsuhwn7kicti0D3-35" style="rounded=0;orthogonalLoop=1;jettySize=auto;html=1;exitX=0;exitY=1;exitDx=0;exitDy=0;exitPerimeter=0;entryX=1;entryY=0.5;entryDx=0;entryDy=0;endArrow=none;endFill=0;" parent="1" source="ZY4rVFsuhwn7kicti0D3-29" target="ZY4rVFsuhwn7kicti0D3-36" edge="1">
          <mxGeometry relative="1" as="geometry">
            <mxPoint x="1090" y="565" as="sourcePoint" />
          </mxGeometry>
        </mxCell>
        <mxCell id="ezecbh4aljtoPJzU3Dml-3" style="rounded=0;orthogonalLoop=1;jettySize=auto;html=1;exitX=0;exitY=0.5;exitDx=0;exitDy=0;entryX=1;entryY=0.5;entryDx=0;entryDy=0;endArrow=none;endFill=0;dashed=1;startArrow=classic;startFill=1;" edge="1" parent="1" source="ZY4rVFsuhwn7kicti0D3-36" target="ZY4rVFsuhwn7kicti0D3-51">
          <mxGeometry relative="1" as="geometry" />
        </mxCell>
        <mxCell id="ezecbh4aljtoPJzU3Dml-4" value="&amp;lt;&amp;lt;extends&amp;gt;&amp;gt;" style="edgeLabel;html=1;align=center;verticalAlign=middle;resizable=0;points=[];" vertex="1" connectable="0" parent="ezecbh4aljtoPJzU3Dml-3">
          <mxGeometry x="-0.2118" y="-3" relative="1" as="geometry">
            <mxPoint as="offset" />
          </mxGeometry>
        </mxCell>
        <mxCell id="ZY4rVFsuhwn7kicti0D3-36" value="Registar Docente" style="ellipse;whiteSpace=wrap;html=1;" parent="1" vertex="1">
          <mxGeometry x="880" y="450" width="100" height="50" as="geometry" />
        </mxCell>
        <mxCell id="ZY4rVFsuhwn7kicti0D3-37" style="rounded=0;orthogonalLoop=1;jettySize=auto;html=1;entryX=1;entryY=0.5;entryDx=0;entryDy=0;endArrow=none;endFill=0;exitX=0;exitY=0.5;exitDx=0;exitDy=0;" parent="1" source="ZY4rVFsuhwn7kicti0D3-49" target="ZY4rVFsuhwn7kicti0D3-38" edge="1">
          <mxGeometry relative="1" as="geometry">
            <mxPoint x="1100" y="475" as="sourcePoint" />
          </mxGeometry>
        </mxCell>
        <mxCell id="ZY4rVFsuhwn7kicti0D3-53" style="rounded=0;orthogonalLoop=1;jettySize=auto;html=1;exitX=0;exitY=0;exitDx=0;exitDy=0;entryX=1;entryY=1;entryDx=0;entryDy=0;endArrow=none;endFill=0;dashed=1;startArrow=classic;startFill=1;" parent="1" source="ZY4rVFsuhwn7kicti0D3-38" target="ZY4rVFsuhwn7kicti0D3-51" edge="1">
          <mxGeometry relative="1" as="geometry" />
        </mxCell>
        <mxCell id="ZY4rVFsuhwn7kicti0D3-38" value="Gerir Horários" style="ellipse;whiteSpace=wrap;html=1;" parent="1" vertex="1">
          <mxGeometry x="700" y="570" width="100" height="50" as="geometry" />
        </mxCell>
        <mxCell id="ZY4rVFsuhwn7kicti0D3-40" style="rounded=0;orthogonalLoop=1;jettySize=auto;html=1;entryX=1;entryY=0.5;entryDx=0;entryDy=0;endArrow=none;endFill=0;" parent="1" target="ZY4rVFsuhwn7kicti0D3-41" edge="1">
          <mxGeometry relative="1" as="geometry">
            <mxPoint x="1100" y="475" as="sourcePoint" />
          </mxGeometry>
        </mxCell>
        <mxCell id="ZY4rVFsuhwn7kicti0D3-41" value="Gerir Stock" style="ellipse;whiteSpace=wrap;html=1;" parent="1" vertex="1">
          <mxGeometry x="880" y="670" width="100" height="50" as="geometry" />
        </mxCell>
        <mxCell id="ZY4rVFsuhwn7kicti0D3-42" style="rounded=0;orthogonalLoop=1;jettySize=auto;html=1;exitX=1;exitY=1;exitDx=0;exitDy=0;exitPerimeter=0;entryX=1;entryY=0.5;entryDx=0;entryDy=0;endArrow=none;endFill=0;" parent="1" source="ZY4rVFsuhwn7kicti0D3-7" target="ZY4rVFsuhwn7kicti0D3-43" edge="1">
          <mxGeometry relative="1" as="geometry">
            <mxPoint x="460" y="280" as="sourcePoint" />
          </mxGeometry>
        </mxCell>
        <mxCell id="ZY4rVFsuhwn7kicti0D3-43" value="Fazer Inscrição" style="ellipse;whiteSpace=wrap;html=1;" parent="1" vertex="1">
          <mxGeometry x="280" y="150" width="100" height="50" as="geometry" />
        </mxCell>
        <mxCell id="ZY4rVFsuhwn7kicti0D3-44" style="rounded=0;orthogonalLoop=1;jettySize=auto;html=1;exitX=0;exitY=1;exitDx=0;exitDy=0;exitPerimeter=0;entryX=1;entryY=0.5;entryDx=0;entryDy=0;endArrow=none;endFill=0;" parent="1" source="ZY4rVFsuhwn7kicti0D3-29" target="ZY4rVFsuhwn7kicti0D3-45" edge="1">
          <mxGeometry relative="1" as="geometry">
            <mxPoint x="1110" y="760" as="sourcePoint" />
          </mxGeometry>
        </mxCell>
        <mxCell id="ZY4rVFsuhwn7kicti0D3-64" style="rounded=0;orthogonalLoop=1;jettySize=auto;html=1;exitX=0;exitY=0;exitDx=0;exitDy=0;entryX=1;entryY=1;entryDx=0;entryDy=0;endArrow=none;endFill=0;" parent="1" source="ZY4rVFsuhwn7kicti0D3-45" target="ZY4rVFsuhwn7kicti0D3-62" edge="1">
          <mxGeometry relative="1" as="geometry" />
        </mxCell>
        <mxCell id="ZY4rVFsuhwn7kicti0D3-75" style="rounded=0;orthogonalLoop=1;jettySize=auto;html=1;exitX=0;exitY=0.5;exitDx=0;exitDy=0;entryX=1;entryY=0.5;entryDx=0;entryDy=0;endArrow=none;endFill=0;" parent="1" source="ZY4rVFsuhwn7kicti0D3-45" target="ZY4rVFsuhwn7kicti0D3-71" edge="1">
          <mxGeometry relative="1" as="geometry" />
        </mxCell>
        <mxCell id="ZY4rVFsuhwn7kicti0D3-45" value="Gerir Aluno" style="ellipse;whiteSpace=wrap;html=1;" parent="1" vertex="1">
          <mxGeometry x="880" y="320" width="100" height="50" as="geometry" />
        </mxCell>
        <mxCell id="ZY4rVFsuhwn7kicti0D3-49" value="Gerir Turmas" style="ellipse;whiteSpace=wrap;html=1;" parent="1" vertex="1">
          <mxGeometry x="880" y="570" width="100" height="50" as="geometry" />
        </mxCell>
        <mxCell id="ezecbh4aljtoPJzU3Dml-1" style="edgeStyle=orthogonalEdgeStyle;rounded=0;orthogonalLoop=1;jettySize=auto;html=1;exitX=0.5;exitY=0;exitDx=0;exitDy=0;curved=1;dashed=1;" edge="1" parent="1" source="ZY4rVFsuhwn7kicti0D3-51" target="ZY4rVFsuhwn7kicti0D3-43">
          <mxGeometry relative="1" as="geometry">
            <Array as="points">
              <mxPoint x="570" y="320" />
              <mxPoint x="330" y="320" />
            </Array>
          </mxGeometry>
        </mxCell>
        <mxCell id="ezecbh4aljtoPJzU3Dml-2" value="&amp;lt;&amp;lt;extends&amp;gt;&amp;gt;" style="edgeLabel;html=1;align=center;verticalAlign=middle;resizable=0;points=[];" vertex="1" connectable="0" parent="ezecbh4aljtoPJzU3Dml-1">
          <mxGeometry x="0.301" y="-16" relative="1" as="geometry">
            <mxPoint as="offset" />
          </mxGeometry>
        </mxCell>
        <mxCell id="ZY4rVFsuhwn7kicti0D3-51" value="Aocar Horário" style="ellipse;whiteSpace=wrap;html=1;" parent="1" vertex="1">
          <mxGeometry x="520" y="480" width="100" height="50" as="geometry" />
        </mxCell>
        <mxCell id="ZY4rVFsuhwn7kicti0D3-52" style="rounded=0;orthogonalLoop=1;jettySize=auto;html=1;exitX=1;exitY=0.5;exitDx=0;exitDy=0;entryX=0;entryY=1;entryDx=0;entryDy=0;entryPerimeter=0;endArrow=none;endFill=0;" parent="1" source="ZY4rVFsuhwn7kicti0D3-49" target="ZY4rVFsuhwn7kicti0D3-29" edge="1">
          <mxGeometry relative="1" as="geometry" />
        </mxCell>
        <mxCell id="ZY4rVFsuhwn7kicti0D3-54" value="&amp;lt;&amp;lt;extends&amp;gt;&amp;gt;" style="text;html=1;align=center;verticalAlign=middle;resizable=0;points=[];autosize=1;strokeColor=none;fillColor=none;" parent="1" vertex="1">
          <mxGeometry x="650" y="650" width="90" height="30" as="geometry" />
        </mxCell>
        <mxCell id="ZY4rVFsuhwn7kicti0D3-57" style="rounded=0;orthogonalLoop=1;jettySize=auto;html=1;exitX=0;exitY=1;exitDx=0;exitDy=0;entryX=1;entryY=1;entryDx=0;entryDy=0;endArrow=none;endFill=0;dashed=1;startArrow=classic;startFill=1;" parent="1" source="ZY4rVFsuhwn7kicti0D3-38" target="ZY4rVFsuhwn7kicti0D3-58" edge="1">
          <mxGeometry relative="1" as="geometry">
            <mxPoint x="745" y="587" as="sourcePoint" />
          </mxGeometry>
        </mxCell>
        <mxCell id="ZY4rVFsuhwn7kicti0D3-58" value="Ver Horário" style="ellipse;whiteSpace=wrap;html=1;" parent="1" vertex="1">
          <mxGeometry x="540" y="640" width="100" height="50" as="geometry" />
        </mxCell>
        <mxCell id="ZY4rVFsuhwn7kicti0D3-59" value="&amp;lt;&amp;lt;extends&amp;gt;&amp;gt;" style="text;html=1;align=center;verticalAlign=middle;resizable=0;points=[];autosize=1;strokeColor=none;fillColor=none;" parent="1" vertex="1">
          <mxGeometry x="600" y="530" width="90" height="30" as="geometry" />
        </mxCell>
        <mxCell id="ZY4rVFsuhwn7kicti0D3-62" value="Registar Pagamento" style="ellipse;whiteSpace=wrap;html=1;" parent="1" vertex="1">
          <mxGeometry x="690" y="210" width="100" height="50" as="geometry" />
        </mxCell>
        <mxCell id="ZY4rVFsuhwn7kicti0D3-67" style="rounded=0;orthogonalLoop=1;jettySize=auto;html=1;exitX=0;exitY=0;exitDx=0;exitDy=0;entryX=1;entryY=0.5;entryDx=0;entryDy=0;dashed=1;endArrow=none;endFill=0;startArrow=classic;startFill=1;" parent="1" source="ZY4rVFsuhwn7kicti0D3-63" target="ZY4rVFsuhwn7kicti0D3-43" edge="1">
          <mxGeometry relative="1" as="geometry" />
        </mxCell>
        <mxCell id="ZY4rVFsuhwn7kicti0D3-68" value="&amp;lt;&amp;lt;include&amp;gt;&amp;gt;" style="edgeLabel;html=1;align=center;verticalAlign=middle;resizable=0;points=[];" parent="ZY4rVFsuhwn7kicti0D3-67" vertex="1" connectable="0">
          <mxGeometry x="-0.2504" y="6" relative="1" as="geometry">
            <mxPoint x="-22" as="offset" />
          </mxGeometry>
        </mxCell>
        <mxCell id="ZY4rVFsuhwn7kicti0D3-63" value="&lt;div&gt;Emitir Fatura/Recibo&lt;/div&gt;" style="ellipse;whiteSpace=wrap;html=1;" parent="1" vertex="1">
          <mxGeometry x="535" y="280" width="100" height="50" as="geometry" />
        </mxCell>
        <mxCell id="ZY4rVFsuhwn7kicti0D3-65" style="rounded=0;orthogonalLoop=1;jettySize=auto;html=1;exitX=1;exitY=0.5;exitDx=0;exitDy=0;entryX=0;entryY=0.5;entryDx=0;entryDy=0;endArrow=none;endFill=0;startArrow=classic;startFill=1;dashed=1;" parent="1" source="ZY4rVFsuhwn7kicti0D3-63" target="ZY4rVFsuhwn7kicti0D3-62" edge="1">
          <mxGeometry relative="1" as="geometry">
            <mxPoint x="690" y="324" as="sourcePoint" />
            <mxPoint x="630" y="290" as="targetPoint" />
          </mxGeometry>
        </mxCell>
        <mxCell id="ZY4rVFsuhwn7kicti0D3-66" value="&amp;lt;&amp;lt;include&amp;gt;&amp;gt;" style="edgeLabel;html=1;align=center;verticalAlign=middle;resizable=0;points=[];" parent="ZY4rVFsuhwn7kicti0D3-65" vertex="1" connectable="0">
          <mxGeometry x="-0.0664" y="1" relative="1" as="geometry">
            <mxPoint as="offset" />
          </mxGeometry>
        </mxCell>
        <mxCell id="ZY4rVFsuhwn7kicti0D3-71" value="Pagar Mensalidade" style="ellipse;whiteSpace=wrap;html=1;" parent="1" vertex="1">
          <mxGeometry x="680" y="380" width="100" height="50" as="geometry" />
        </mxCell>
        <mxCell id="fXAgZ5qfwU6JTrAxFCv2-1" style="rounded=0;orthogonalLoop=1;jettySize=auto;html=1;exitX=1;exitY=1;exitDx=0;exitDy=0;exitPerimeter=0;entryX=1;entryY=0.5;entryDx=0;entryDy=0;endArrow=none;endFill=0;" parent="1" source="ZY4rVFsuhwn7kicti0D3-7" target="fXAgZ5qfwU6JTrAxFCv2-2" edge="1">
          <mxGeometry relative="1" as="geometry">
            <mxPoint x="170" y="268" as="sourcePoint" />
          </mxGeometry>
        </mxCell>
        <mxCell id="fXAgZ5qfwU6JTrAxFCv2-2" value="Gerir Pagamentos" style="ellipse;whiteSpace=wrap;html=1;" parent="1" vertex="1">
          <mxGeometry x="250" y="310" width="100" height="50" as="geometry" />
        </mxCell>
        <mxCell id="fXAgZ5qfwU6JTrAxFCv2-3" style="rounded=0;orthogonalLoop=1;jettySize=auto;html=1;exitX=1;exitY=1;exitDx=0;exitDy=0;entryX=1;entryY=0.5;entryDx=0;entryDy=0;endArrow=none;endFill=0;" parent="1" source="fXAgZ5qfwU6JTrAxFCv2-2" target="fXAgZ5qfwU6JTrAxFCv2-4" edge="1">
          <mxGeometry relative="1" as="geometry">
            <mxPoint x="320" y="510" as="sourcePoint" />
          </mxGeometry>
        </mxCell>
        <mxCell id="fXAgZ5qfwU6JTrAxFCv2-4" value="Ver Histórico de Pagamentos" style="ellipse;whiteSpace=wrap;html=1;" parent="1" vertex="1">
          <mxGeometry x="380" y="405" width="100" height="50" as="geometry" />
        </mxCell>
        <mxCell id="fXAgZ5qfwU6JTrAxFCv2-5" style="rounded=0;orthogonalLoop=1;jettySize=auto;html=1;exitX=1;exitY=0.5;exitDx=0;exitDy=0;entryX=1;entryY=0.5;entryDx=0;entryDy=0;endArrow=none;endFill=0;" parent="1" source="fXAgZ5qfwU6JTrAxFCv2-2" target="fXAgZ5qfwU6JTrAxFCv2-6" edge="1">
          <mxGeometry relative="1" as="geometry">
            <mxPoint x="332.6753390593274" y="399.9976695296637" as="sourcePoint" />
          </mxGeometry>
        </mxCell>
        <mxCell id="fXAgZ5qfwU6JTrAxFCv2-7" style="rounded=0;orthogonalLoop=1;jettySize=auto;html=1;exitX=1;exitY=0.5;exitDx=0;exitDy=0;entryX=0;entryY=1;entryDx=0;entryDy=0;endArrow=classic;endFill=1;dashed=1;startArrow=none;startFill=0;" parent="1" source="fXAgZ5qfwU6JTrAxFCv2-6" target="ZY4rVFsuhwn7kicti0D3-63" edge="1">
          <mxGeometry relative="1" as="geometry" />
        </mxCell>
        <mxCell id="fXAgZ5qfwU6JTrAxFCv2-8" value="&amp;lt;&amp;lt;include&amp;gt;&amp;gt;" style="edgeLabel;html=1;align=center;verticalAlign=middle;resizable=0;points=[];" parent="fXAgZ5qfwU6JTrAxFCv2-7" vertex="1" connectable="0">
          <mxGeometry x="-0.4606" y="2" relative="1" as="geometry">
            <mxPoint x="55" y="1" as="offset" />
          </mxGeometry>
        </mxCell>
        <mxCell id="fXAgZ5qfwU6JTrAxFCv2-6" value="Efetuar Pagamento" style="ellipse;whiteSpace=wrap;html=1;" parent="1" vertex="1">
          <mxGeometry x="390" y="330" width="100" height="50" as="geometry" />
        </mxCell>
        <mxCell id="fXAgZ5qfwU6JTrAxFCv2-10" value="Ver Horário e Turma" style="ellipse;whiteSpace=wrap;html=1;" parent="1" vertex="1">
          <mxGeometry x="250" y="410" width="100" height="50" as="geometry" />
        </mxCell>
        <mxCell id="fXAgZ5qfwU6JTrAxFCv2-11" style="rounded=0;orthogonalLoop=1;jettySize=auto;html=1;exitX=0;exitY=0;exitDx=0;exitDy=0;entryX=1;entryY=1;entryDx=0;entryDy=0;entryPerimeter=0;endArrow=none;endFill=0;" parent="1" source="fXAgZ5qfwU6JTrAxFCv2-10" target="ZY4rVFsuhwn7kicti0D3-7" edge="1">
          <mxGeometry relative="1" as="geometry" />
        </mxCell>
        <mxCell id="fXAgZ5qfwU6JTrAxFCv2-12" value="Ver Material de Apoio" style="ellipse;whiteSpace=wrap;html=1;" parent="1" vertex="1">
          <mxGeometry x="250" y="490" width="100" height="50" as="geometry" />
        </mxCell>
        <mxCell id="fXAgZ5qfwU6JTrAxFCv2-13" style="rounded=0;orthogonalLoop=1;jettySize=auto;html=1;exitX=0;exitY=0.5;exitDx=0;exitDy=0;entryX=1;entryY=1;entryDx=0;entryDy=0;entryPerimeter=0;endArrow=none;endFill=0;" parent="1" source="fXAgZ5qfwU6JTrAxFCv2-12" target="ZY4rVFsuhwn7kicti0D3-7" edge="1">
          <mxGeometry relative="1" as="geometry">
            <mxPoint x="255" y="467" as="sourcePoint" />
            <mxPoint x="160" y="320" as="targetPoint" />
          </mxGeometry>
        </mxCell>
      </root>
    </mxGraphModel>
  </diagram>
</mxfile>
